<svg xmlns="http://www.w3.org/2000/svg" width="504" height="504" viewBox="0 0 504 504"><path fill="#6d6e71" d="M170.8 184.4l7.4 6.3a25.2 25.2 0 0 0 5.1 3.4 46.9 46.9 0 0 0 22.7 5l24.1-.7c11 15.1 17.5 67.1 6.1 82-18.5 24.3-53.3 63.4-70.3 58.5-26.7-7.6-64.4-47.4-72.8-67.1-5.7-13-8.2-26.7-8.5-49.6-.3-18.4 3.8-31.3 10.9-44.3a53 53 0 0 1 20.5-20.7l.8-.5c.9-.8.3-7.8.3-7.8s-7.2-20.1 4.9-32.4 30.9-15.5 41.8-14.3c8.1.9 17.4-2.5 21.7-4.3a2.9 2.9 0 0 1 3.8 1.4c1.2 2.5 2.7 6.2 2.5 8.1l-.5 3s.9-1.9 2-.8-.1 8.5-7.2 15.2-8.8 9.7-9 15c0 0-2.1-3.4-2.5-3.9s1.7 6.3 1.3 9.6a15.4 15.4 0 0 0-3.8-6.1s1.4 8.4.7 8.5-2.3-3.2-2.3-3.2l-.9 6.4-.8-5.2s-2.3 6.4-4 10.5-1.7 7.1-.8 15.3a19.3 19.3 0 0 0 6.8 12.7z"/><path fill="#231f20" d="M133 120.9l-24 4.3c-8.8 1.6-10.3 7.3-8.6 12.3s6.5 11.4 23.3 11.6 11.8-12.4 5.6-12c-1 0-13-2.2-13.9-5.6s24.5-8.2 17.6-10.6z"/><circle cx="163.9" cy="109.8" r="1.9" fill="#fff"/><path fill="#231f20" d="M278.5 139.1l-3.6-7.4-1.9 7.2-3.7-9.7-4.1 6.2-1.5-9.6-1.9 7.5s-.4-1.3-.2-8.9a7.9 7.9 0 0 0-7.8-2.9l-2.8 9-3.1-6.8s-2.5 11.3-2.4 9.6-4.4-8.4-4.4-8.4a17.8 17.8 0 0 1 0 5.5c-.4-3-7.7-12.7-7.7-12.7a26.8 26.8 0 0 1 .7 5.7s-4-5.6-7.4-7.5-14.1 4.3-16 4.2-5.5-.9-4.6-4.1a14.1 14.1 0 0 1-5.3-1.8c-2.1-1.3-8.4-14.3-10.1-17.9a1.4 1.4 0 0 1 .3-1.7l30.5-28.7s1.2-11.9 5.4-18 16.6-15.2 19.3-16.5 14.9-15.5 27.1-16.3L285 7.6l-5.1 7 12.3-4.5-5.2 4.6 11.2-2.4-5.5 4s14.3-.1 23.1 6.4 24.2 8.2 48.1 27.7c29.3 24 31 18 42.5 25.6-6.1 1.3-9.7-1.1-9.7-1.1s3.1 3.1 11.5 15.5c1.7 2.5 7.1 9.9 7.1 9.9 37.9 60.2 20.1 153.4-5.6 191.3-21.4 31.5-66.5 52.4-111 58-95.8 11.9-135.1-11.2-135.1-11.2l-3-1.9a24.4 24.4 0 0 1-7-6.6c-27.1-38.3-9.8-48.2-3.1-75.8 7.6-31.4 51.6-48.3 64.7-56.6 15.4-9.8 40.5-22.5 52.2-33.7 0 0 16.8-13.6 11.1-24.7z"/><circle cx="235.3" cy="65.6" r="2" fill="#fff"/><path fill="#6d6e71" d="M271.6 39.7s.2-11.7 3.4-14.4 12.7-7.8 18-5.6 10.3 18.3 5.1 22.8-18.8 6.5-19.8 11.9c-6.8 1.4 1.4-11.8 2.1-13.3s3.5-6.6 3.6-10.2a.7.7 0 0 0-1.1-.5c-4.2 3.9-10.5 13.7-11.3 9.3z"/><path fill="#f15a29" d="M19.2 464.6h6.4l21.3-66.7h29.2l21.3 66.7h6.5v18.2H65.6v-18.2h6.6l-1.7-7.8h-18l-1.7 7.8h6.6v18.2H19.2zm47.4-24.5l-2.7-11.7c-1.4-6.3-2.1-11.3-2.1-11.3h-.6a106.6 106.6 0 0 1-2.1 11.3l-2.9 11.7zm44.1 24.5h9v-48.5h-9v-18.2h40.1c7 0 10.9 0 15.8 1.5 10 3 16.4 10.6 16.4 20.8 0 6.9-3.1 14.3-9.9 18.1v.2c10.6 3.3 13.4 11.6 13.4 19 0 13.6-9.8 21.9-20.4 24.3a54.4 54.4 0 0 1-12.7 1h-42.7zm41.3-35.2c4.1 0 5.8-2.7 5.8-5.9s-1.8-5.9-6.1-5.9h-6.5v11.8zm2.3 33.7c4.7 0 6.8-3.2 6.8-7.4s-1.8-6.4-6.6-6.4h-9.3v13.8zm84.1-66.6c26.4 0 45 19 45 43.3s-18.6 44.4-45 44.4-45.1-19.5-45.1-44.4 18.6-43.3 45.1-43.3zm0 65.7c10.2 0 18.7-9.5 18.7-22.4s-8.5-21.3-18.7-21.3-18.8 9.1-18.8 21.3 8.5 22.4 18.8 22.4zm49.4-64.3h40.9v18.2H319l5.3 29.4a88.6 88.6 0 0 1 1.2 10h.5s.5-5.3 1.5-10l10.9-47.6h19.2l11 47.6c1 4.7 1.5 10 1.5 10h.5a89.7 89.7 0 0 1 1-10l5.5-29.4h-9.8v-18.2h41v18.2h-6.6l-15.9 66.7H358l-8.2-35.8a98.7 98.7 0 0 1-1.5-10.6h-.5s-.6 6-1.6 10.6l-8.2 35.8h-27.8l-15.8-66.7h-6.6zm119.7 66.7h6.4l21.3-66.7h29.1l21.4 66.7h6.5v18.2h-38.4v-18.2h6.6l-1.6-7.8h-18.1l-1.6 7.8h6.6v18.2h-38.2zm47.4-24.5l-2.7-11.7c-1.4-6.3-2.1-11.3-2.1-11.3h-.6a106.6 106.6 0 0 1-2.1 11.3l-2.9 11.7z"/></svg>