<svg xmlns="http://www.w3.org/2000/svg" width="5in" height="5in" viewBox="0 0 360 360">
  <title>bg-patterns</title>
  <g id="Layer_3" data-name="Layer 3">
    <path d="M177.8,229.6c0,14.2-7.1,25.7-15.9,25.7S146,243.8,146,229.6c0-12.6,5.6-23,13-25.2l-5.7-29.2c0-.7.8-.8.9-.2l10.3,29.3C172,206.3,177.8,216.9,177.8,229.6Z" fill="#fff"/>
    <path d="M106.6,260.5c35.6-7.8,67.8,16.3,71.9,35,2,9.3.3,14.7-9.9,23.4s-29.2,5.3-47.2,9.3c-35.5,7.8-67.7-1.1-71.8-19.7S71,268.3,106.6,260.5Z" fill="#fff"/>
    <path d="M143.1,231.5c0,10.4-5.3,18.9-11.8,18.9s-11.7-8.5-11.7-18.9,4.7-18,10.6-18.9l8.5-29.6c.1-.6.8-.5.8.1l-4.9,30.2C139.5,215.6,143.1,222.9,143.1,231.5Z" fill="#fff"/>
    <path d="M114.9,239.8c0,9.7-5.2,17.5-11.7,17.5s-11.7-7.8-11.7-17.5c0-6.9,2.6-12.8,6.5-15.7h0l8.8-28.9c0-.7.7-.6.7.1l-4.5,27h.2C109.7,222.3,114.9,230.1,114.9,239.8Z" fill="#fff"/>
    <path d="M88.1,250c0,9.7-5.3,17.5-11.8,17.5S64.6,259.7,64.6,250c0-8,3.6-14.8,8.5-16.9l8.6-26.6c.1-.6.8-.5.8.1l-4.7,26C83.6,233.7,88.1,241,88.1,250Z" fill="#fff"/>
    <path d="M62.4,264.7c0,9.6-5.3,17.5-11.7,17.5S39,274.3,39,264.7s4.7-16.8,10.8-17.5l7.5-17.8a.4.4,0,0,1,.7.1l-4.3,18.3C58.7,249.8,62.4,256.6,62.4,264.7Z" fill="#fff"/>
    <path d="M98,147.1h0a36,36,0,0,1-35.6-30.5l-1.3-8.4A103.3,103.3,0,0,1,61.4,74h0c3.5-19.5,16.7-32.7,35.5-35.9a4.6,4.6,0,0,1,5.4,4.8c-.5,10.6-4.4,16.6-2.8,38.7l6.4,45.7C107.7,134.9,108.9,147.1,98,147.1Z" fill="#fff"/>
    <path d="M124.2,147.1h0a36,36,0,0,0,35.6-30.5l1.3-8.4a106.1,106.1,0,0,0-.3-34.2h0c-3.5-19.5-16.7-32.7-35.5-35.9a4.7,4.7,0,0,0-5.5,4.8c.6,10.6,4.5,16.6,2.9,38.7l-6.4,45.7C114.5,134.9,113.2,147.1,124.2,147.1Z" fill="#fff"/>
    <ellipse cx="230.6" cy="80.1" rx="12.5" ry="15.8" transform="translate(10.9 186.5) rotate(-45)" fill="#fff"/>
    <ellipse cx="257.6" cy="61.4" rx="12.5" ry="15.8" fill="#fff"/><ellipse cx="288.8" cy="65.5" rx="15.8" ry="12.5" transform="translate(134 318) rotate(-71.3)" fill="#fff"/>
    <ellipse cx="313.8" cy="84.3" rx="15.8" ry="12.5" transform="translate(59.7 286.8) rotate(-53.6)" fill="#fff"/>
    <path d="M300.1,133l-15.6,4a54.8,54.8,0,0,1-26.4,0l-16.7-4.1a16,16,0,0,1-12.1-15.5h0a13.9,13.9,0,0,1,7.4-12.2L263.6,91a12,12,0,0,1,10.6-.2l31.2,14.8a12.7,12.7,0,0,1,7.2,11.4h0A16.4,16.4,0,0,1,300.1,133Z" fill="#fff"/>
    <path d="M309.7,224.4l-6.9,30.3-2.1,6.5a.1.1,0,0,1-.1.1l-10,29.4a20,20,0,0,1-19,13.5,13,13,0,0,1-12.2-8.2l-7.2-18.1-12.7-28.5a7.5,7.5,0,0,1-.5-4.4h0l-3.6-23.2a.3.3,0,0,1,.5-.2l10.2,11.5a2.2,2.2,0,0,0,3.8-1.2l2.6-25.7c.1-.3.5-.4.6,0l8.8,19.5a2.1,2.1,0,0,0,4-.4l6.2-25.8a.3.3,0,0,1,.6,0l6.8,22.5a2.1,2.1,0,0,0,3.9.4l10.4-19.9c.3-.3.7-.2.6.1l1.3,31.9a2.2,2.2,0,0,0,1,1.7h.1a2.2,2.2,0,0,0,2.7-.5l9.6-11.7C309.4,223.9,309.8,224.1,309.7,224.4Z" fill="#fff"/>
  </g>
</svg>
