<svg xmlns="http://www.w3.org/2000/svg" width="5in" height="5in" viewBox="0 0 360 360"><g fill="#fff"><path d="M177.8 229.6c0 14.2-7.1 25.7-15.9 25.7S146 243.8 146 229.6c0-12.6 5.6-23 13-25.2l-5.7-29.2c0-.7.8-.8.9-.2l10.3 29.3c7.5 2 13.3 12.6 13.3 25.3zm-71.2 30.9c35.6-7.8 67.8 16.3 71.9 35 2 9.3.3 14.7-9.9 23.4s-29.2 5.3-47.2 9.3c-35.5 7.8-67.7-1.1-71.8-19.7s21.4-40.2 57-48zm36.5-29c0 10.4-5.3 18.9-11.8 18.9s-11.7-8.5-11.7-18.9 4.7-18 10.6-18.9l8.5-29.6c.1-.6.8-.5.8.1l-4.9 30.2c4.9 2.3 8.5 9.6 8.5 18.2zm-28.2 8.3c0 9.7-5.2 17.5-11.7 17.5s-11.7-7.8-11.7-17.5c0-6.9 2.6-12.8 6.5-15.7l8.8-28.9c0-.7.7-.6.7.1l-4.5 27h.2c6.5 0 11.7 7.8 11.7 17.5zM88.1 250c0 9.7-5.3 17.5-11.8 17.5s-11.7-7.8-11.7-17.5c0-8 3.6-14.8 8.5-16.9l8.6-26.6c.1-.6.8-.5.8.1l-4.7 26c5.8 1.1 10.3 8.4 10.3 17.4zm-25.7 14.7c0 9.6-5.3 17.5-11.7 17.5S39 274.3 39 264.7s4.7-16.8 10.8-17.5l7.5-17.8a.4.4 0 0 1 .7.1l-4.3 18.3c5 2 8.7 8.8 8.7 16.9zM98 147.1a36 36 0 0 1-35.6-30.5l-1.3-8.4a103.3 103.3 0 0 1 .3-34.2c3.5-19.5 16.7-32.7 35.5-35.9a4.6 4.6 0 0 1 5.4 4.8c-.5 10.6-4.4 16.6-2.8 38.7l6.4 45.7c1.8 7.6 3 19.8-7.9 19.8zm26.2 0a36 36 0 0 0 35.6-30.5l1.3-8.4a106.1 106.1 0 0 0-.3-34.2c-3.5-19.5-16.7-32.7-35.5-35.9a4.7 4.7 0 0 0-5.5 4.8c.6 10.6 4.5 16.6 2.9 38.7l-6.4 45.7c-1.8 7.6-3.1 19.8 7.9 19.8z"/><ellipse cx="230.6" cy="80.1" rx="12.5" ry="15.8" transform="rotate(-45 230.575 80.093)"/><ellipse cx="257.6" cy="61.4" rx="12.5" ry="15.8"/><ellipse cx="288.8" cy="65.5" rx="15.8" ry="12.5" transform="rotate(-71.3 288.68 65.588)"/><ellipse cx="313.8" cy="84.3" rx="15.8" ry="12.5" transform="rotate(-53.6 313.734 84.307)"/><path d="M300.1 133l-15.6 4a54.8 54.8 0 0 1-26.4 0l-16.7-4.1a16 16 0 0 1-12.1-15.5 13.9 13.9 0 0 1 7.4-12.2L263.6 91a12 12 0 0 1 10.6-.2l31.2 14.8a12.7 12.7 0 0 1 7.2 11.4 16.4 16.4 0 0 1-12.5 16zm9.6 91.4l-6.9 30.3-2.1 6.5a.1.1 0 0 1-.1.1l-10 29.4a20 20 0 0 1-19 13.5 13 13 0 0 1-12.2-8.2l-7.2-18.1-12.7-28.5a7.5 7.5 0 0 1-.5-4.4l-3.6-23.2a.3.3 0 0 1 .5-.2l10.2 11.5a2.2 2.2 0 0 0 3.8-1.2l2.6-25.7c.1-.3.5-.4.6 0l8.8 19.5a2.1 2.1 0 0 0 4-.4l6.2-25.8a.3.3 0 0 1 .6 0l6.8 22.5a2.1 2.1 0 0 0 3.9.4l10.4-19.9c.3-.3.7-.2.6.1l1.3 31.9a2.2 2.2 0 0 0 1 1.7h.1a2.2 2.2 0 0 0 2.7-.5l9.6-11.7c.3-.1.7.1.6.4z"/></g></svg>