<svg id="patterns" xmlns="http://www.w3.org/2000/svg" width="0.5in" height="0.5in" viewBox="0 0 36 36"><title>fav-icon</title><ellipse cx="29" cy="12.7" rx="3.7" ry="5.9"/><path d="M16.2,19.8c8.2-1.8,15.6,3.7,16.6,8,.4,2.2,0,3.4-2.3,5.4s-6.7,1.2-10.8,2.1c-8.2,1.8-15.6-.2-16.6-4.5S8,21.6,16.2,19.8Z"/><ellipse cx="21.9" cy="13.1" rx="2.7" ry="4.4"/><ellipse cx="15.5" cy="15" rx="2.7" ry="4"/><ellipse cx="9.3" cy="17.3" rx="2.7" ry="4"/><ellipse cx="3.4" cy="20.7" rx="2.7" ry="4"/><path d="M3.9,29.8h.4l1.2-3.9H7.2l1.3,3.9h.4v1.1H6.6V29.8H7v-.4h-1v.4h.4v1.1H3.9Zm2.8-1.4-.2-.7a2.4,2.4,0,0,0-.1-.7h0a2.4,2.4,0,0,0-.1.7l-.2.7Z" fill="#fff"/><path d="M9.3,29.8h.5V27H9.3V25.9h3.2a1.3,1.3,0,0,1,1,1.2,1.3,1.3,0,0,1-.6,1.1h0a1.1,1.1,0,0,1,.8,1.1,1.4,1.4,0,0,1-1.2,1.4H9.3Zm2.3-2a.4.4,0,0,0,.4-.4c0-.2-.1-.3-.4-.3h-.3v.7Zm.2,1.9a.4.4,0,0,0,0-.8h-.5v.8Z" fill="#fff"/><path d="M16.7,25.9a2.5,2.5,0,1,1,0,5,2.5,2.5,0,1,1,0-5Zm0,3.8a1.3,1.3,0,0,0,0-2.6,1.3,1.3,0,0,0,0,2.6Z" fill="#fff"/><path d="M19.5,25.9h2.4V27h-.6l.4,1.7v.6h.1v-.6l.7-2.8h1.1l.6,2.8a2.1,2.1,0,0,1,.1.6h0a2.2,2.2,0,0,0,.1-.6l.3-1.7h-.6V25.9h2.4V27h-.4l-.9,3.9H23.6l-.5-2.1a2.2,2.2,0,0,0-.1-.6h0a2.1,2.1,0,0,1-.1.6l-.4,2.1H20.8L19.9,27h-.4Z" fill="#fff"/><path d="M26.5,29.8h.4l1.2-3.9h1.7L31,29.8h.4v1.1H29.2V29.8h.4v-.4H28.4v.4h.4v1.1H26.5Zm2.7-1.4v-.7A3.2,3.2,0,0,1,29,27h-.1a3.2,3.2,0,0,1-.1.7l-.2.7Z" fill="#fff"/><path d="M3.7,17.7H3.1c-.1,0-.3-.1-.2-.3l2-4.8h.2L3.9,17.5A.2.2,0,0,1,3.7,17.7Z"/><path d="M9.3,14H8.7c-.1,0-.2-.2-.2-.4l2-6.3c0-.1.2-.1.2.1L9.6,13.6A.4.4,0,0,1,9.3,14Z"/><path d="M15.1,11.8h-.6c-.2,0-.3-.2-.2-.4l2-6.7c0-.1.1-.1.1.1l-1.1,6.7C15.3,11.7,15.2,11.8,15.1,11.8Z"/><path d="M22.4,9.4h-.5c-.2,0-.3-.2-.3-.5l2-7c0-.1.2-.1.2.1L22.7,9C22.7,9.2,22.6,9.4,22.4,9.4Z"/><path d="M28.7,7.5h.7c.2,0,.3-.2.3-.4L27.2.1H27l1.4,7.1A.3.3,0,0,0,28.7,7.5Z"/></svg>